<svg width="1200" height="630" viewBox="0 0 1200 630" fill="none" xmlns="http://www.w3.org/2000/svg">
<rect width="1200" height="630" fill="#1133FF"/>
<path d="M417.597 285.395C417.902 274.4 419.467 272.774 430.48 272.017L431.438 271.952V266.92H398.078L363.575 346.104L327.781 267.523L327.506 266.92H294.32V271.972L295.298 272.021C307.804 272.632 309.126 273.883 309.43 285.367V350.21C309.122 366.701 307.5 368.881 294.965 369.647L294 369.704V374.743H333.44V369.696L332.467 369.647C320.886 369.044 318.797 366.135 318.488 350.227V290.598L356.452 374.144L356.728 374.747H360.281L399.311 287.013V354.529C399.161 367.463 397.896 368.877 385.8 369.647L384.838 369.708V374.747H431.438V369.704L430.468 369.651C419.585 369.044 417.902 367.292 417.597 356.305V285.395Z" fill="#F1F1F1"/>
<path d="M500.631 360.326L498.944 361.739C496.303 363.951 494.624 364.697 492.283 364.697C489.943 364.697 488.381 364.11 488.381 355.983V323.392C488.381 314.45 487.403 309.329 484.88 305.109C480.881 298.745 473.575 295.523 463.171 295.523C446.892 295.523 434.143 304.188 434.143 315.248C434.143 319.705 437.891 323.47 442.329 323.47C446.767 323.47 450.835 319.701 450.835 315.407C450.835 314.906 450.758 314.364 450.661 313.676C450.616 313.35 450.564 312.983 450.495 312.466C450.186 311.073 450.04 309.875 450.04 308.698C450.04 304.84 455.107 301.581 461.102 301.581C469.04 301.581 473.596 306.27 473.596 314.446V323.975L469.101 325.796C447.947 334.355 444.134 335.899 437.344 341.965C433.47 345.517 430.963 351.587 430.963 357.425C430.963 368.392 438.755 376.352 449.493 376.352C458.66 376.352 464.947 372.702 474.123 365.055C475.023 372.397 477.246 376.352 484.649 376.352C490.433 376.352 494.1 374.336 500.347 367.724L500.631 367.426V360.326ZM469.819 360.998C465.771 363.344 462.818 364.534 457.926 364.534C451.517 364.534 446.864 359.527 446.864 352.626V351.987C446.864 343.264 454.389 337.084 473.6 330.126V352.944C473.6 357.775 472.963 359.132 469.819 360.998Z" fill="#F1F1F1"/>
<path d="M559.274 303.1C559.274 296.647 555.161 292.643 548.541 292.643C541.361 292.643 536.274 296.203 528.571 307.011V291.335L526.547 290.659L526.19 290.809C517.408 294.496 511.437 296.704 501.617 299.886L500.903 300.118V304.929L502.197 304.583C504.606 303.939 505.982 303.821 507.819 303.821C511.543 303.821 513.311 305.174 513.311 312.853V359.609C512.877 367.512 512.46 368.437 501.455 370.148L500.583 370.282V374.755H542.728V370.164L541.73 370.136C531.086 369.83 528.872 367.903 528.571 358.708V319.245C528.571 314.132 535.492 305.899 539.791 305.899C540.619 305.899 541.909 306.657 543.722 308.193C546.464 310.641 548.5 311.969 551.405 311.969C556.183 311.969 559.274 308.49 559.274 303.108V303.1Z" fill="#F1F1F1"/>
<path d="M616.635 347.24C608.656 358.712 602.592 362.774 593.457 362.774C578.753 362.774 568.08 349.167 568.08 330.415C568.08 313.529 577.142 301.731 590.119 301.731C595.769 301.731 597.659 303.251 599.302 309.097L600.268 312.967C601.902 318.618 605.103 321.86 609.05 321.86C614.003 321.86 618.03 318.243 618.03 313.798C618.03 303.715 606.007 295.511 591.23 295.511C582.716 295.511 574.116 298.892 567.005 305.035C558.369 312.727 553.611 324.459 553.611 338.078C553.611 360.248 567.358 376.336 586.298 376.336C594.021 376.336 600.9 373.696 607.33 368.258C611.82 364.391 615.053 359.637 620.148 349.404L620.562 348.573L617.199 346.422L616.635 347.232V347.24Z" fill="#F1F1F1"/>
<path d="M820.954 295.56C813.296 295.56 806.522 297.409 798.981 301.556C780.464 311.908 767.528 332.359 767.528 351.286C767.528 352.264 767.572 353.258 767.658 354.256C758.713 364.326 757.225 365.605 754.637 365.605C753.497 365.605 752.572 364.522 752.572 363.186C752.572 360.648 758.012 340.633 764.21 320.353C768.623 305.818 772.631 291.258 782.086 255.444L782.22 254.927L780.622 253L780.013 253.134C770.14 255.298 763.91 256.259 753.335 257.257L752.402 257.347V262.219L753.395 262.256C763.228 262.602 763.228 263.103 763.228 265.882C763.228 267.98 763.228 268.151 760.514 277.683L753.631 302.787C751.801 297.645 748.426 295.56 742.435 295.56C731.491 295.56 718.421 303.108 707.473 315.758C696.558 328.366 690.043 343.391 690.043 355.946C690.043 357.747 690.181 359.47 690.457 361.079C690.226 361.34 690.003 361.589 689.792 361.825C687.204 363.972 685.545 364.697 683.237 364.697C680.807 364.697 679.334 364.11 679.334 355.983V323.392C679.334 314.45 678.357 309.329 675.834 305.109C671.834 298.745 664.529 295.523 654.124 295.523C637.846 295.523 625.097 304.188 625.097 315.248C625.097 319.705 628.845 323.47 633.282 323.47C637.72 323.47 641.789 319.701 641.789 315.407C641.789 314.906 641.712 314.364 641.614 313.676C641.57 313.35 641.517 312.983 641.448 312.466C641.14 311.073 640.994 309.875 640.994 308.698C640.994 304.84 646.06 301.581 652.055 301.581C659.994 301.581 664.549 306.27 664.549 314.446V323.975L660.054 325.796C638.9 334.355 635.088 335.899 628.297 341.965C624.419 345.517 621.916 351.587 621.916 357.425C621.916 368.392 629.709 376.352 640.446 376.352C649.613 376.352 655.901 372.702 665.076 365.055C665.977 372.397 668.2 376.352 675.602 376.352C681.265 376.352 685.013 374.319 690.988 368.046C691.406 367.667 691.824 367.272 692.238 366.864C695.247 373.191 701.243 376.654 709.282 376.654C720.352 376.654 727.909 371.859 738.764 357.36C737.612 362.57 737.288 364.978 737.288 368.205C737.288 373.382 740.679 377 745.534 377C752.41 377 760.681 371.248 768.956 360.758C772.298 370.893 781.299 376.658 793.979 376.658C805.767 376.658 817.105 371.451 827.688 361.177C839.427 349.563 846.72 334.143 846.72 320.932C846.72 305.765 836.364 295.572 820.954 295.572V295.56ZM816.326 357.775C810.274 366.644 803.808 370.958 796.559 370.958C789.311 370.958 784.187 365.133 784.187 356.464C784.187 343.745 789.448 328.24 797.922 315.986C804.635 306.209 811.693 301.251 818.894 301.251C826.094 301.251 830.065 307.068 830.065 316.438C830.065 328.998 824.293 346.381 816.338 357.771L816.33 357.78L816.326 357.775ZM749.834 310.392C749.834 326.826 741.754 346.894 730.189 359.197C725.966 363.597 720.912 366.123 716.328 366.123C710.71 366.123 707.222 362.09 707.222 355.596C707.222 341.635 716.154 321.335 727.56 309.37C731.966 304.628 737.827 301.564 742.391 301.564C742.618 301.564 742.841 301.573 743.06 301.589C747.68 301.898 749.83 304.697 749.83 310.392H749.834ZM660.772 360.998C656.724 363.344 653.771 364.534 648.879 364.534C642.47 364.534 637.817 359.527 637.817 352.626V351.987C637.817 343.264 645.342 337.084 664.553 330.126V352.944C664.553 357.775 663.916 359.132 660.772 360.998Z" fill="#F1F1F1"/>
<path d="M900.929 295.384L900.633 295.906C899.449 297.984 898.613 298.493 896.374 298.493C895.141 298.493 893.482 298.163 890.492 297.332C886.156 295.991 883.621 295.56 880.055 295.56C866.905 295.56 858.066 303.74 858.066 315.917C858.066 321.783 861.676 329.381 869.107 339.154C875.524 347.416 878.51 353.518 878.51 358.362C878.51 365.899 873.675 370.958 866.479 370.958C857.409 370.958 852.472 364.098 849.973 348.023L849.835 347.151H845.309L841.248 376.996H845.812L846.096 376.426C847.507 373.59 848.314 373.374 849.3 373.374C851.304 373.374 854.492 374.108 857.599 374.886C862.053 376.189 864.645 376.654 867.509 376.654C882.737 376.654 893.79 366.567 893.79 352.675C893.79 345.611 890.115 337.907 881.877 327.698C875.451 319.713 872.827 314.605 872.827 310.058C872.827 304.762 876.105 301.601 881.593 301.601C890.302 301.601 895.056 307.724 896.549 320.87L896.65 321.787H901.197L905.298 295.393H900.921L900.929 295.384Z" fill="#F1F1F1"/>
</svg>
