<svg width="1200" height="630" viewBox="0 0 1200 630" fill="none" xmlns="http://www.w3.org/2000/svg">
<rect width="1200" height="630" fill="#1133FF"/>
<path d="M208.448 328.396C214.48 328.396 217.444 323.248 217.444 316.488C217.444 309.728 214.48 304.528 208.448 304.528C202.468 304.528 199.4 309.728 199.4 316.488C199.4 323.248 202.468 328.396 208.448 328.396ZM208.396 335.884C197.164 335.884 190.04 327.616 190.04 316.488C190.04 305.36 197.164 297.092 208.396 297.092C219.68 297.092 226.804 305.36 226.804 316.488C226.804 327.616 219.68 335.884 208.396 335.884ZM248.35 335.676C239.562 335.676 235.35 330.892 235.35 323.82V320.544H243.722V323.612C243.722 326.784 245.23 328.084 247.778 328.084C250.482 328.084 251.626 326.42 251.626 323.716V297.82H260.83V323.924C260.83 327.252 259.998 329.956 258.178 331.984C256.098 334.272 252.718 335.676 248.35 335.676ZM281.834 328.396C287.866 328.396 290.83 323.248 290.83 316.488C290.83 309.728 287.866 304.528 281.834 304.528C275.854 304.528 272.786 309.728 272.786 316.488C272.786 323.248 275.854 328.396 281.834 328.396ZM281.782 335.884C270.55 335.884 263.426 327.616 263.426 316.488C263.426 305.36 270.55 297.092 281.782 297.092C293.066 297.092 300.19 305.36 300.19 316.488C300.19 327.616 293.066 335.884 281.782 335.884ZM319.381 335.832C314.077 335.832 309.761 333.96 306.693 330.632C303.469 327.096 301.701 322.208 301.701 316.54C301.701 310.716 303.677 305.568 307.213 302.032C310.281 298.912 314.597 297.092 319.953 297.092C329.521 297.092 335.241 302.188 336.437 309.988H327.493C326.817 306.972 324.321 304.684 320.265 304.684C314.129 304.684 311.061 309.78 311.061 316.54C311.061 323.352 314.597 328.396 320.421 328.396C325.257 328.396 328.117 325.172 328.481 321.896V321.792H321.513V315.032H337.009V335H330.561L330.041 330.528H329.937C327.493 334.324 323.853 335.832 319.381 335.832ZM357.773 328.396C363.805 328.396 366.769 323.248 366.769 316.488C366.769 309.728 363.805 304.528 357.773 304.528C351.793 304.528 348.725 309.728 348.725 316.488C348.725 323.248 351.793 328.396 357.773 328.396ZM357.721 335.884C346.489 335.884 339.365 327.616 339.365 316.488C339.365 305.36 346.489 297.092 357.721 297.092C369.005 297.092 376.129 305.36 376.129 316.488C376.129 327.616 369.005 335.884 357.721 335.884ZM386.547 335V297.82H403.291C407.815 297.82 411.143 299.068 413.431 301.252C415.823 303.488 417.175 306.66 417.175 310.404C417.175 317.528 412.235 322.572 404.591 322.572H395.907V335H386.547ZM395.907 315.292H402.719C406.047 315.292 407.919 313.316 407.919 310.352C407.919 307.388 405.995 305.568 402.719 305.568H395.907V315.292ZM436.745 328.396C442.777 328.396 445.741 323.248 445.741 316.488C445.741 309.728 442.777 304.528 436.745 304.528C430.765 304.528 427.697 309.728 427.697 316.488C427.697 323.248 430.765 328.396 436.745 328.396ZM436.693 335.884C425.461 335.884 418.337 327.616 418.337 316.488C418.337 305.36 425.461 297.092 436.693 297.092C447.977 297.092 455.101 305.36 455.101 316.488C455.101 327.616 447.977 335.884 436.693 335.884ZM458.069 335V297.82H475.853C483.237 297.82 488.853 301.616 488.853 308.532C488.853 312.848 486.721 316.02 482.405 317.528V317.684C485.629 318.776 487.293 320.804 487.813 324.496C488.593 329.384 488.073 334.064 489.373 334.532V335H480.429C479.441 334.428 479.597 330.06 479.025 326.368C478.557 322.936 476.789 321.064 472.837 321.064H467.273V335H458.069ZM467.273 314.252H474.189C477.829 314.252 479.701 312.536 479.701 309.728C479.701 307.024 477.933 305.1 474.397 305.1H467.273V314.252ZM508.934 335V305.62H498.118V297.82H529.058V305.62H518.138V335H508.934ZM531.861 335V297.82H549.645C557.029 297.82 562.645 301.616 562.645 308.532C562.645 312.848 560.513 316.02 556.197 317.528V317.684C559.421 318.776 561.085 320.804 561.605 324.496C562.385 329.384 561.865 334.064 563.165 334.532V335H554.221C553.233 334.428 553.389 330.06 552.817 326.368C552.349 322.936 550.581 321.064 546.629 321.064H541.065V335H531.861ZM541.065 314.252H547.981C551.621 314.252 553.493 312.536 553.493 309.728C553.493 307.024 551.725 305.1 548.189 305.1H541.065V314.252ZM563.524 335L576.888 297.82H586.352L599.768 335H590.096L587.912 328.292H574.912L572.78 335H563.524ZM577.044 321.688H585.78L582.972 312.692C582.348 310.768 581.516 307.44 581.516 307.44H581.412C581.412 307.44 580.528 310.768 579.904 312.692L577.044 321.688ZM578.188 296L580.424 289.24H590.148L584.636 296H578.188ZM616.577 335.884C606.697 335.884 600.197 331.516 599.989 323.3H609.245C609.661 327.044 612.105 328.604 616.525 328.604C619.541 328.604 622.505 327.512 622.505 324.704C622.505 321.74 619.489 321.116 614.393 319.868C607.945 318.36 601.133 316.384 601.133 308.584C601.133 300.628 607.581 297.144 615.901 297.144C623.961 297.144 630.201 300.784 630.565 308.584H621.569C621.205 305.724 619.021 304.112 615.589 304.112C612.365 304.112 610.233 305.516 610.233 307.596C610.233 310.196 613.093 310.82 618.657 312.068C625.573 313.68 631.813 315.812 631.813 323.768C631.813 331.568 625.157 335.884 616.577 335.884ZM651.608 327.252H657.016C663.048 327.252 666.168 323.456 666.168 316.644C666.168 309.884 662.892 305.516 657.12 305.516H651.608V327.252ZM642.404 335V297.82H658.264C668.56 297.82 675.476 305.256 675.476 316.644C675.476 323.196 673.188 328.448 669.028 331.62C666.116 333.804 662.372 335 657.692 335H642.404ZM695.344 328.396C701.376 328.396 704.34 323.248 704.34 316.488C704.34 309.728 701.376 304.528 695.344 304.528C689.364 304.528 686.296 309.728 686.296 316.488C686.296 323.248 689.364 328.396 695.344 328.396ZM695.292 335.884C684.06 335.884 676.936 327.616 676.936 316.488C676.936 305.36 684.06 297.092 695.292 297.092C706.576 297.092 713.7 305.36 713.7 316.488C713.7 327.616 706.576 335.884 695.292 335.884ZM724.118 335V297.82H740.862C745.386 297.82 748.714 299.068 751.002 301.252C753.394 303.488 754.746 306.66 754.746 310.404C754.746 317.528 749.806 322.572 742.162 322.572H733.478V335H724.118ZM733.478 315.292H740.29C743.618 315.292 745.49 313.316 745.49 310.352C745.49 307.388 743.566 305.568 740.29 305.568H733.478V315.292ZM774.316 328.396C780.348 328.396 783.312 323.248 783.312 316.488C783.312 309.728 780.348 304.528 774.316 304.528C768.336 304.528 765.268 309.728 765.268 316.488C765.268 323.248 768.336 328.396 774.316 328.396ZM774.264 335.884C763.032 335.884 755.908 327.616 755.908 316.488C755.908 305.36 763.032 297.092 774.264 297.092C785.548 297.092 792.672 305.36 792.672 316.488C792.672 327.616 785.548 335.884 774.264 335.884ZM795.639 335V297.82H813.423C820.807 297.82 826.423 301.616 826.423 308.532C826.423 312.848 824.291 316.02 819.975 317.528V317.684C823.199 318.776 824.863 320.804 825.383 324.496C826.163 329.384 825.643 334.064 826.943 334.532V335H817.999C817.011 334.428 817.167 330.06 816.595 326.368C816.127 322.936 814.359 321.064 810.407 321.064H804.843V335H795.639ZM804.843 314.252H811.759C815.399 314.252 817.271 312.536 817.271 309.728C817.271 307.024 815.503 305.1 811.967 305.1H804.843V314.252ZM839.054 335V305.62H828.238V297.82H859.178V305.62H848.258V335H839.054ZM861.981 335V297.82H889.645V305.568H871.185V313.108H886.629V320.544H871.185V335H861.981ZM906.054 296L908.29 289.24H918.014L912.502 296H906.054ZM909.538 328.396C915.57 328.396 918.534 323.248 918.534 316.488C918.534 309.728 915.57 304.528 909.538 304.528C903.558 304.528 900.49 309.728 900.49 316.488C900.49 323.248 903.558 328.396 909.538 328.396ZM909.486 335.884C898.254 335.884 891.13 327.616 891.13 316.488C891.13 305.36 898.254 297.092 909.486 297.092C920.77 297.092 927.894 305.36 927.894 316.488C927.894 327.616 920.77 335.884 909.486 335.884ZM930.862 335V297.82H940.066V327.2H956.758V335H930.862ZM959.692 335V297.82H968.896V335H959.692ZM990.287 328.396C996.319 328.396 999.283 323.248 999.283 316.488C999.283 309.728 996.319 304.528 990.287 304.528C984.307 304.528 981.239 309.728 981.239 316.488C981.239 323.248 984.307 328.396 990.287 328.396ZM990.235 335.884C979.003 335.884 971.879 327.616 971.879 316.488C971.879 305.36 979.003 297.092 990.235 297.092C1001.52 297.092 1008.64 305.36 1008.64 316.488C1008.64 327.616 1001.52 335.884 990.235 335.884Z" fill="#F2F2F2"/>
<path d="M565.063 49.2701C565.122 47.1419 565.425 46.8273 567.556 46.6807L567.741 46.668V45.6943H561.285L554.607 61.0201L547.679 45.811L547.626 45.6943H541.203V46.672L541.392 46.6815C543.812 46.7997 544.068 47.0418 544.127 49.2645V61.8149C544.067 65.0067 543.753 65.4285 541.327 65.5768L541.141 65.5878V66.5632H548.774V65.5862L548.586 65.5768C546.344 65.4601 545.94 64.8971 545.88 61.8181V50.277L553.228 66.4473L553.281 66.564H553.969L561.523 49.5831V62.6507C561.494 65.1541 561.249 65.4278 558.908 65.5768L558.722 65.5886V66.564H567.741V65.5878L567.554 65.5776C565.447 65.4601 565.122 65.121 565.063 62.9945V49.2701Z" fill="#F1F1F1"/>
<path d="M581.134 63.7727L580.807 64.0463C580.296 64.4745 579.971 64.6188 579.518 64.6188C579.065 64.6188 578.763 64.5052 578.763 62.9322V56.6243C578.763 54.8936 578.574 53.9024 578.085 53.0856C577.311 51.8539 575.897 51.2302 573.883 51.2302C570.733 51.2302 568.265 52.9074 568.265 55.0481C568.265 55.9107 568.991 56.6393 569.849 56.6393C570.708 56.6393 571.496 55.9099 571.496 55.0788C571.496 54.9819 571.481 54.877 571.462 54.7437C571.453 54.6807 571.443 54.6097 571.43 54.5096C571.37 54.2399 571.342 54.0081 571.342 53.7802C571.342 53.0335 572.323 52.4027 573.483 52.4027C575.019 52.4027 575.901 53.3103 575.901 54.8928V56.737L575.031 57.0895C570.937 58.7461 570.199 59.0449 568.885 60.219C568.135 60.9066 567.65 62.0814 567.65 63.2113C567.65 65.3339 569.158 66.8746 571.236 66.8746C573.01 66.8746 574.227 66.1681 576.003 64.6882C576.177 66.109 576.608 66.8746 578.04 66.8746C579.16 66.8746 579.87 66.4843 581.079 65.2046L581.134 65.1471V63.7727ZM575.17 63.9028C574.387 64.357 573.815 64.5872 572.868 64.5872C571.628 64.5872 570.727 63.6182 570.727 62.2825V62.1587C570.727 60.4705 572.184 59.2744 575.902 57.9277V62.344C575.902 63.2791 575.779 63.5417 575.17 63.9028Z" fill="#F1F1F1"/>
<path d="M592.484 52.6968C592.484 51.4479 591.688 50.6728 590.407 50.6728C589.017 50.6728 588.032 51.3619 586.542 53.4538V50.4197L586.15 50.2888L586.081 50.318C584.381 51.0315 583.225 51.4589 581.325 52.0747L581.186 52.1197V53.0509L581.437 52.9838C581.903 52.8593 582.169 52.8364 582.525 52.8364C583.246 52.8364 583.588 53.0982 583.588 54.5845V63.6339C583.504 65.1636 583.423 65.3426 581.293 65.6738L581.124 65.6998V66.5655H589.282V65.6769L589.088 65.6714C587.028 65.6123 586.6 65.2393 586.542 63.4597V55.8216C586.542 54.8321 587.881 53.2385 588.713 53.2385C588.873 53.2385 589.123 53.3852 589.474 53.6824C590.005 54.1563 590.399 54.4134 590.961 54.4134C591.886 54.4134 592.484 53.74 592.484 52.6984V52.6968Z" fill="#F1F1F1"/>
<path d="M603.586 61.2401C602.042 63.4605 600.868 64.2466 599.1 64.2466C596.254 64.2466 594.188 61.613 594.188 57.9836C594.188 54.7154 595.942 52.4319 598.454 52.4319C599.548 52.4319 599.913 52.726 600.231 53.8575L600.418 54.6065C600.735 55.7002 601.354 56.3278 602.118 56.3278C603.077 56.3278 603.856 55.6276 603.856 54.7674C603.856 52.8159 601.529 51.2279 598.669 51.2279C597.021 51.2279 595.357 51.8823 593.98 53.0714C592.309 54.56 591.388 56.8309 591.388 59.4668C591.388 63.7577 594.049 66.8715 597.714 66.8715C599.209 66.8715 600.541 66.3605 601.785 65.3079C602.654 64.5596 603.28 63.6395 604.266 61.6588L604.346 61.4979L603.695 61.0816L603.586 61.2385V61.2401Z" fill="#F1F1F1"/>
<path d="M643.132 51.2373C641.649 51.2373 640.338 51.5953 638.879 52.398C635.295 54.4015 632.791 58.3597 632.791 62.0231C632.791 62.2123 632.8 62.4047 632.816 62.5979C631.085 64.547 630.797 64.7946 630.296 64.7946C630.076 64.7946 629.897 64.5849 629.897 64.3262C629.897 63.835 630.949 59.9612 632.149 56.0361C633.003 53.2227 633.779 50.4047 635.609 43.4731L635.635 43.373L635.325 43L635.208 43.026C633.297 43.4447 632.091 43.6308 630.044 43.824L629.864 43.8413V44.7843L630.056 44.7914C631.959 44.8585 631.959 44.9555 631.959 45.4932C631.959 45.8993 631.959 45.9324 631.434 47.7774L630.101 52.6361C629.747 51.641 629.094 51.2373 627.935 51.2373C625.816 51.2373 623.287 52.6984 621.168 55.1467C619.055 57.587 617.794 60.495 617.794 62.9251C617.794 63.2736 617.821 63.6071 617.874 63.9186C617.829 63.9691 617.786 64.0172 617.745 64.0629C617.245 64.4784 616.923 64.6188 616.477 64.6188C616.006 64.6188 615.721 64.5052 615.721 62.9322V56.6243C615.721 54.8936 615.532 53.9024 615.044 53.0856C614.27 51.8539 612.856 51.2302 610.842 51.2302C607.691 51.2302 605.224 52.9074 605.224 55.0481C605.224 55.9107 605.949 56.6393 606.808 56.6393C607.667 56.6393 608.455 55.9099 608.455 55.0788C608.455 54.9819 608.44 54.877 608.421 54.7437C608.412 54.6807 608.402 54.6097 608.389 54.5096C608.329 54.2399 608.301 54.0081 608.301 53.7802C608.301 53.0335 609.281 52.4027 610.442 52.4027C611.978 52.4027 612.86 53.3103 612.86 54.8928V56.737L611.99 57.0895C607.896 58.7461 607.158 59.0449 605.843 60.219C605.093 60.9066 604.608 62.0814 604.608 63.2113C604.608 65.3339 606.117 66.8746 608.195 66.8746C609.969 66.8746 611.186 66.1681 612.962 64.6882C613.136 66.109 613.566 66.8746 614.999 66.8746C616.095 66.8746 616.821 66.4812 617.977 65.2669C618.058 65.1936 618.139 65.1171 618.219 65.0382C618.801 66.2628 619.962 66.933 621.518 66.933C623.66 66.933 625.123 66.0049 627.224 63.1987C627.001 64.2072 626.938 64.6732 626.938 65.2977C626.938 66.2998 627.595 67 628.534 67C629.865 67 631.466 65.8867 633.068 63.8563C633.714 65.8181 635.457 66.9338 637.911 66.9338C640.192 66.9338 642.387 65.9261 644.435 63.9375C646.707 61.6895 648.119 58.7051 648.119 56.148C648.119 53.2125 646.114 51.2397 643.132 51.2397V51.2373ZM642.236 63.2791C641.065 64.9957 639.813 65.8307 638.41 65.8307C637.007 65.8307 636.016 64.7031 636.016 63.0252C636.016 60.5636 637.034 57.5626 638.674 55.1908C639.973 53.2984 641.339 52.3389 642.733 52.3389C644.127 52.3389 644.895 53.4648 644.895 55.2783C644.895 57.7092 643.778 61.0737 642.238 63.2783L642.237 63.2799L642.236 63.2791ZM629.367 54.1082C629.367 57.289 627.803 61.1731 625.564 63.5543C624.747 64.4059 623.769 64.8947 622.882 64.8947C621.794 64.8947 621.119 64.1141 621.119 62.8573C621.119 60.1551 622.848 56.2261 625.056 53.9103C625.908 52.9925 627.043 52.3996 627.926 52.3996C627.97 52.3996 628.013 52.4011 628.055 52.4043C628.95 52.4642 629.366 53.0059 629.366 54.1082H629.367ZM612.129 63.9028C611.345 64.357 610.774 64.5872 609.827 64.5872C608.586 64.5872 607.686 63.6182 607.686 62.2825V62.1587C607.686 60.4705 609.142 59.2744 612.861 57.9277V62.344C612.861 63.2791 612.737 63.5417 612.129 63.9028Z" fill="#F1F1F1"/>
<path d="M658.611 51.2034L658.554 51.3044C658.324 51.7065 658.163 51.805 657.729 51.805C657.491 51.805 657.169 51.7412 656.591 51.5803C655.752 51.3209 655.261 51.2373 654.571 51.2373C652.025 51.2373 650.315 52.8206 650.315 55.1774C650.315 56.3128 651.013 57.7834 652.452 59.6749C653.694 61.274 654.272 62.4552 654.272 63.3927C654.272 64.8514 653.336 65.8307 651.943 65.8307C650.187 65.8307 649.232 64.5029 648.748 61.3915L648.722 61.2227H647.846L647.06 66.9992H647.943L647.998 66.8888C648.271 66.34 648.427 66.2982 648.618 66.2982C649.006 66.2982 649.623 66.4402 650.224 66.5908C651.086 66.8431 651.588 66.933 652.142 66.933C655.09 66.933 657.229 64.9807 657.229 62.2919C657.229 60.9247 656.518 59.4337 654.923 57.4577C653.68 55.9123 653.172 54.9235 653.172 54.0436C653.172 53.0185 653.806 52.4067 654.868 52.4067C656.554 52.4067 657.474 53.5918 657.763 56.1362L657.783 56.3136H658.663L659.456 51.205H658.609L658.611 51.2034Z" fill="#F1F1F1"/>
<path d="M423.64 567L426.877 557.705H428.827L432.103 567H430.14L429.516 565.024H426.162L425.551 567H423.64ZM427.436 560.903L426.604 563.581H429.061L428.229 560.903C428.073 560.409 427.852 559.473 427.852 559.473H427.826C427.826 559.473 427.592 560.409 427.436 560.903ZM438.826 567.195C436.213 567.195 434.354 565.18 434.354 562.385C434.354 559.629 436.07 557.523 438.813 557.523C441.101 557.523 442.453 558.888 442.648 560.656H440.776C440.607 559.72 439.905 559.109 438.813 559.109C437.097 559.109 436.278 560.539 436.278 562.385C436.278 564.283 437.266 565.648 438.826 565.648C439.931 565.648 440.711 564.985 440.828 564.01H442.674C442.622 564.829 442.271 565.622 441.647 566.207C441.01 566.805 440.113 567.195 438.826 567.195ZM447.569 567.208C444.826 567.208 443.084 565.154 443.084 562.372C443.084 559.59 444.826 557.523 447.569 557.523C450.312 557.523 452.041 559.59 452.041 562.372C452.041 565.154 450.312 567.208 447.569 567.208ZM447.582 565.661C449.285 565.661 450.117 564.218 450.117 562.372C450.117 560.513 449.285 559.07 447.582 559.07C445.879 559.07 445.008 560.513 445.008 562.372C445.008 564.218 445.879 565.661 447.582 565.661ZM452.916 567V557.705H455.568L456.881 562.372C457.206 563.542 457.466 564.881 457.466 564.881H457.492C457.492 564.881 457.739 563.542 458.064 562.372L459.377 557.705H462.068V567H460.313V561.67C460.313 560.916 460.391 559.746 460.391 559.746H460.365C460.365 559.746 460.157 560.838 459.962 561.514L458.363 567H456.556L454.996 561.514C454.801 560.838 454.593 559.746 454.593 559.746H454.567C454.567 559.746 454.645 560.916 454.645 561.67V567H452.916ZM466.936 567.156C464.531 567.156 463.27 566.025 463.27 564.01V557.705H465.155V564.01C465.155 564.972 465.636 565.648 466.897 565.648C468.093 565.648 468.652 564.946 468.652 563.984V557.705H470.537V564.01C470.537 565.999 469.315 567.156 466.936 567.156ZM471.736 567V557.705H473.647L476.741 562.892C477.04 563.399 477.391 564.192 477.391 564.192H477.417C477.417 564.192 477.365 563.23 477.365 562.58V557.705H479.224V567H477.404L474.232 561.865C473.933 561.371 473.569 560.578 473.569 560.578H473.543C473.543 560.578 473.595 561.553 473.595 562.203V567H471.736ZM480.505 567V557.705H482.39V567H480.505ZM483.675 567V557.705H487.302C489.785 557.705 491.384 559.707 491.384 562.45C491.384 563.958 490.877 565.284 489.902 566.103C489.213 566.675 488.316 567 487.146 567H483.675ZM485.56 565.375H487.016C488.784 565.375 489.473 564.296 489.473 562.45C489.473 560.604 488.667 559.317 487.068 559.317H485.56V565.375ZM491.578 567L494.815 557.705H496.765L500.041 567H498.078L497.454 565.024H494.1L493.489 567H491.578ZM495.374 560.903L494.542 563.581H496.999L496.167 560.903C496.011 560.409 495.79 559.473 495.79 559.473H495.764C495.764 559.473 495.53 560.409 495.374 560.903ZM500.667 567V557.705H504.294C506.777 557.705 508.376 559.707 508.376 562.45C508.376 563.958 507.869 565.284 506.894 566.103C506.205 566.675 505.308 567 504.138 567H500.667ZM502.552 565.375H504.008C505.776 565.375 506.465 564.296 506.465 562.45C506.465 560.604 505.659 559.317 504.06 559.317H502.552V565.375ZM509.245 567V557.705H516.083V559.291H511.13V561.371H515.472V562.918H511.13V565.427H516.122V567H509.245ZM523.248 567.208C520.505 567.208 518.763 565.154 518.763 562.372C518.763 559.59 520.505 557.523 523.248 557.523C525.991 557.523 527.72 559.59 527.72 562.372C527.72 565.154 525.991 567.208 523.248 567.208ZM523.261 565.661C524.964 565.661 525.796 564.218 525.796 562.372C525.796 560.513 524.964 559.07 523.261 559.07C521.558 559.07 520.687 560.513 520.687 562.372C520.687 564.218 521.558 565.661 523.261 565.661ZM528.595 567V557.705H530.506L533.6 562.892C533.899 563.399 534.25 564.192 534.25 564.192H534.276C534.276 564.192 534.224 563.23 534.224 562.58V557.705H536.083V567H534.263L531.091 561.865C530.792 561.371 530.428 560.578 530.428 560.578H530.402C530.402 560.578 530.454 561.553 530.454 562.203V567H528.595ZM537.351 567V557.705H540.978C543.461 557.705 545.06 559.707 545.06 562.45C545.06 563.958 544.553 565.284 543.578 566.103C542.889 566.675 541.992 567 540.822 567H537.351ZM539.236 565.375H540.692C542.46 565.375 543.149 564.296 543.149 562.45C543.149 560.604 542.343 559.317 540.744 559.317H539.236V565.375ZM545.929 567V557.705H552.767V559.291H547.814V561.371H552.156V562.918H547.814V565.427H552.806V567H545.929ZM559.919 567.195C557.306 567.195 555.447 565.18 555.447 562.385C555.447 559.629 557.163 557.523 559.906 557.523C562.194 557.523 563.546 558.888 563.741 560.656H561.869C561.7 559.72 560.998 559.109 559.906 559.109C558.19 559.109 557.371 560.539 557.371 562.385C557.371 564.283 558.359 565.648 559.919 565.648C561.024 565.648 561.804 564.985 561.921 564.01H563.767C563.715 564.829 563.364 565.622 562.74 566.207C562.103 566.805 561.206 567.195 559.919 567.195ZM564.58 567V557.705H568.844C570.638 557.705 571.834 558.745 571.834 560.292C571.834 561.384 571.327 562.216 570.131 562.541V562.58C570.989 562.827 571.431 563.321 571.548 564.452C571.678 565.765 571.626 566.766 571.951 566.909V567H570.144C569.91 566.896 569.884 565.856 569.806 564.855C569.728 563.841 569.156 563.269 567.986 563.269H566.465V567H564.58ZM566.465 559.226V561.813H568.467C569.494 561.813 570.001 561.28 570.001 560.539C570.001 559.785 569.52 559.226 568.519 559.226H566.465ZM572.905 567V557.705H574.79V567H572.905ZM575.399 567L578.636 557.705H580.586L583.862 567H581.899L581.275 565.024H577.921L577.31 567H575.399ZM579.195 560.903L578.363 563.581H580.82L579.988 560.903C579.832 560.409 579.611 559.473 579.611 559.473H579.585C579.585 559.473 579.351 560.409 579.195 560.903ZM584.007 559.291V557.705H591.482V559.291H588.687V567H586.802V559.291H584.007ZM592.293 567V557.705H594.178V567H592.293ZM597.906 567L594.773 557.705H596.749L598.387 563.087C598.569 563.698 598.79 564.569 598.79 564.569H598.816C598.816 564.569 599.037 563.685 599.219 563.087L600.844 557.705H602.755L599.622 567H597.906ZM607.425 567.208C604.682 567.208 602.94 565.154 602.94 562.372C602.94 559.59 604.682 557.523 607.425 557.523C610.168 557.523 611.897 559.59 611.897 562.372C611.897 565.154 610.168 567.208 607.425 567.208ZM607.438 565.661C609.141 565.661 609.973 564.218 609.973 562.372C609.973 560.513 609.141 559.07 607.438 559.07C605.735 559.07 604.864 560.513 604.864 562.372C604.864 564.218 605.735 565.661 607.438 565.661ZM616.373 567.208C613.851 567.208 612.421 566.09 612.356 564.127H614.202C614.332 565.245 614.969 565.687 616.295 565.687C617.257 565.687 618.102 565.349 618.102 564.491C618.102 563.581 617.218 563.399 615.801 563.074C614.137 562.697 612.616 562.255 612.616 560.318C612.616 558.485 614.111 557.536 616.178 557.536C618.271 557.536 619.623 558.563 619.766 560.435H617.959C617.855 559.499 617.127 559.031 616.165 559.031C615.151 559.031 614.488 559.46 614.488 560.123C614.488 560.877 615.138 561.098 616.516 561.397C618.427 561.813 619.987 562.268 619.987 564.27C619.987 566.155 618.466 567.208 616.373 567.208ZM622.984 567V557.705H627.066C628.145 557.705 628.951 558.017 629.497 558.576C630.017 559.109 630.329 559.837 630.329 560.695C630.329 562.45 629.172 563.633 627.222 563.633H624.934V567H622.984ZM624.934 559.343V562.099H626.884C627.872 562.099 628.392 561.553 628.392 560.708C628.392 559.837 627.846 559.343 626.91 559.343H624.934ZM631.105 567V557.705H635.369C637.163 557.705 638.359 558.745 638.359 560.292C638.359 561.384 637.852 562.216 636.656 562.541V562.58C637.514 562.827 637.956 563.321 638.073 564.452C638.203 565.765 638.151 566.766 638.476 566.909V567H636.669C636.435 566.896 636.409 565.856 636.331 564.855C636.253 563.841 635.681 563.269 634.511 563.269H632.99V567H631.105ZM632.99 559.226V561.813H634.992C636.019 561.813 636.526 561.28 636.526 560.539C636.526 559.785 636.045 559.226 635.044 559.226H632.99ZM638.741 567L641.978 557.705H643.928L647.204 567H645.241L644.617 565.024H641.263L640.652 567H638.741ZM642.537 560.903L641.705 563.581H644.162L643.33 560.903C643.174 560.409 642.953 559.473 642.953 559.473H642.927C642.927 559.473 642.693 560.409 642.537 560.903ZM647.349 559.291V557.705H654.824V559.291H652.029V567H650.144V559.291H647.349ZM655.635 567V557.705H657.52V567H655.635ZM662.874 567.195C660.261 567.195 658.402 565.18 658.402 562.385C658.402 559.629 660.118 557.523 662.861 557.523C665.149 557.523 666.501 558.888 666.696 560.656H664.824C664.655 559.72 663.953 559.109 662.861 559.109C661.145 559.109 660.326 560.539 660.326 562.385C660.326 564.283 661.314 565.648 662.874 565.648C663.979 565.648 664.759 564.985 664.876 564.01H666.722C666.67 564.829 666.319 565.622 665.695 566.207C665.058 566.805 664.161 567.195 662.874 567.195ZM666.859 567L670.096 557.705H672.046L675.322 567H673.359L672.735 565.024H669.381L668.77 567H666.859ZM670.655 560.903L669.823 563.581H672.28L671.448 560.903C671.292 560.409 671.071 559.473 671.071 559.473H671.045C671.045 559.473 670.811 560.409 670.655 560.903ZM675.949 567V557.705H678.601L679.914 562.372C680.239 563.542 680.499 564.881 680.499 564.881H680.525C680.525 564.881 680.772 563.542 681.097 562.372L682.41 557.705H685.101V567H683.346V561.67C683.346 560.916 683.424 559.746 683.424 559.746H683.398C683.398 559.746 683.19 560.838 682.995 561.514L681.396 567H679.589L678.029 561.514C677.834 560.838 677.626 559.746 677.626 559.746H677.6C677.6 559.746 677.678 560.916 677.678 561.67V567H675.949ZM687.732 567L690.969 557.705H692.919L696.195 567H694.232L693.608 565.024H690.254L689.643 567H687.732ZM691.528 560.903L690.696 563.581H693.153L692.321 560.903C692.165 560.409 691.944 559.473 691.944 559.473H691.918C691.918 559.473 691.684 560.409 691.528 560.903ZM698.849 567V557.705H705.687V559.291H700.734V561.371H705.076V562.918H700.734V565.427H705.726V567H698.849ZM710.343 567.208C707.821 567.208 706.391 566.09 706.326 564.127H708.172C708.302 565.245 708.939 565.687 710.265 565.687C711.227 565.687 712.072 565.349 712.072 564.491C712.072 563.581 711.188 563.399 709.771 563.074C708.107 562.697 706.586 562.255 706.586 560.318C706.586 558.485 708.081 557.536 710.148 557.536C712.241 557.536 713.593 558.563 713.736 560.435H711.929C711.825 559.499 711.097 559.031 710.135 559.031C709.121 559.031 708.458 559.46 708.458 560.123C708.458 560.877 709.108 561.098 710.486 561.397C712.397 561.813 713.957 562.268 713.957 564.27C713.957 566.155 712.436 567.208 710.343 567.208ZM714.446 559.291V557.705H721.921V559.291H719.126V567H717.241V559.291H714.446ZM722.718 567V557.705H726.982C728.776 557.705 729.972 558.745 729.972 560.292C729.972 561.384 729.465 562.216 728.269 562.541V562.58C729.127 562.827 729.569 563.321 729.686 564.452C729.816 565.765 729.764 566.766 730.089 566.909V567H728.282C728.048 566.896 728.022 565.856 727.944 564.855C727.866 563.841 727.294 563.269 726.124 563.269H724.603V567H722.718ZM724.603 559.226V561.813H726.605C727.632 561.813 728.139 561.28 728.139 560.539C728.139 559.785 727.658 559.226 726.657 559.226H724.603ZM730.354 567L733.591 557.705H735.541L738.817 567H736.854L736.23 565.024H732.876L732.265 567H730.354ZM734.15 560.903L733.318 563.581H735.775L734.943 560.903C734.787 560.409 734.566 559.473 734.566 559.473H734.54C734.54 559.473 734.306 560.409 734.15 560.903ZM738.962 559.291V557.705H746.437V559.291H743.642V567H741.757V559.291H738.962ZM747.234 567V557.705H754.072V559.291H749.119V561.371H753.461V562.918H749.119V565.427H754.111V567H747.234ZM752.655 555.586L751.42 557.211H750.042L750.588 555.586H752.655ZM761.939 567L761.874 565.752H761.848C761.211 566.818 760.34 567.195 759.235 567.195C757.831 567.195 756.739 566.688 755.972 565.843C755.205 564.985 754.763 563.789 754.763 562.385C754.763 560.838 755.309 559.486 756.284 558.589C757.038 557.9 758.026 557.523 759.274 557.523C761.614 557.523 762.953 558.81 763.252 560.63H761.406C761.198 559.733 760.509 559.083 759.313 559.083C757.558 559.083 756.687 560.539 756.687 562.385C756.687 564.283 757.688 565.674 759.287 565.674C760.73 565.674 761.679 564.595 761.679 563.568V563.516H759.443V562.06H763.356V567H761.939ZM764.531 567V557.705H766.416V567H764.531ZM767.025 567L770.262 557.705H772.212L775.488 567H773.525L772.901 565.024H769.547L768.936 567H767.025ZM770.821 560.903L769.989 563.581H772.446L771.614 560.903C771.458 560.409 771.237 559.473 771.237 559.473H771.211C771.211 559.473 770.977 560.409 770.821 560.903ZM433.645 583V573.705H437.272C439.755 573.705 441.354 575.707 441.354 578.45C441.354 579.958 440.847 581.284 439.872 582.103C439.183 582.675 438.286 583 437.116 583H433.645ZM435.53 581.375H436.986C438.754 581.375 439.443 580.296 439.443 578.45C439.443 576.604 438.637 575.317 437.038 575.317H435.53V581.375ZM442.223 583V573.705H449.061V575.291H444.108V577.371H448.45V578.918H444.108V581.427H449.1V583H442.223ZM452.144 583V573.705H454.796L456.109 578.372C456.434 579.542 456.694 580.881 456.694 580.881H456.72C456.72 580.881 456.967 579.542 457.292 578.372L458.605 573.705H461.296V583H459.541V577.67C459.541 576.916 459.619 575.746 459.619 575.746H459.593C459.593 575.746 459.385 576.838 459.19 577.514L457.591 583H455.784L454.224 577.514C454.029 576.838 453.821 575.746 453.821 575.746H453.795C453.795 575.746 453.873 576.916 453.873 577.67V583H452.144ZM461.9 583L465.137 573.705H467.087L470.363 583H468.4L467.776 581.024H464.422L463.811 583H461.9ZM465.696 576.903L464.864 579.581H467.321L466.489 576.903C466.333 576.409 466.112 575.473 466.112 575.473H466.086C466.086 575.473 465.852 576.409 465.696 576.903ZM470.989 583V573.705H475.253C477.047 573.705 478.243 574.745 478.243 576.292C478.243 577.384 477.736 578.216 476.54 578.541V578.58C477.398 578.827 477.84 579.321 477.957 580.452C478.087 581.765 478.035 582.766 478.36 582.909V583H476.553C476.319 582.896 476.293 581.856 476.215 580.855C476.137 579.841 475.565 579.269 474.395 579.269H472.874V583H470.989ZM472.874 575.226V577.813H474.876C475.903 577.813 476.41 577.28 476.41 576.539C476.41 575.785 475.929 575.226 474.928 575.226H472.874ZM483.37 583.195C480.757 583.195 478.898 581.18 478.898 578.385C478.898 575.629 480.614 573.523 483.357 573.523C485.645 573.523 486.997 574.888 487.192 576.656H485.32C485.151 575.72 484.449 575.109 483.357 575.109C481.641 575.109 480.822 576.539 480.822 578.385C480.822 580.283 481.81 581.648 483.37 581.648C484.475 581.648 485.255 580.985 485.372 580.01H487.218C487.166 580.829 486.815 581.622 486.191 582.207C485.554 582.805 484.657 583.195 483.37 583.195ZM487.356 583L490.593 573.705H492.543L495.819 583H493.856L493.232 581.024H489.878L489.267 583H487.356ZM491.152 576.903L490.32 579.581H492.777L491.945 576.903C491.789 576.409 491.568 575.473 491.568 575.473H491.542C491.542 575.473 491.308 576.409 491.152 576.903ZM499.057 580.452V578.931H509.457V580.452H499.057ZM512.668 583L515.905 573.705H517.855L521.131 583H519.168L518.544 581.024H515.19L514.579 583H512.668ZM516.464 576.903L515.632 579.581H518.089L517.257 576.903C517.101 576.409 516.88 575.473 516.88 575.473H516.854C516.854 575.473 516.62 576.409 516.464 576.903ZM525.345 583.156C522.94 583.156 521.679 582.025 521.679 580.01V573.705H523.564V580.01C523.564 580.972 524.045 581.648 525.306 581.648C526.502 581.648 527.061 580.946 527.061 579.984V573.705H528.946V580.01C528.946 581.999 527.724 583.156 525.345 583.156ZM530.145 583V573.705H532.03V581.427H536.398V583H530.145ZM536.575 583L539.812 573.705H541.762L545.038 583H543.075L542.451 581.024H539.097L538.486 583H536.575ZM540.371 576.903L539.539 579.581H541.996L541.164 576.903C541.008 576.409 540.787 575.473 540.787 575.473H540.761C540.761 575.473 540.527 576.409 540.371 576.903ZM549.265 583.208C546.743 583.208 545.313 582.09 545.248 580.127H547.094C547.224 581.245 547.861 581.687 549.187 581.687C550.149 581.687 550.994 581.349 550.994 580.491C550.994 579.581 550.11 579.399 548.693 579.074C547.029 578.697 545.508 578.255 545.508 576.318C545.508 574.485 547.003 573.536 549.07 573.536C551.163 573.536 552.515 574.563 552.658 576.435H550.851C550.747 575.499 550.019 575.031 549.057 575.031C548.043 575.031 547.38 575.46 547.38 576.123C547.38 576.877 548.03 577.098 549.408 577.397C551.319 577.813 552.879 578.268 552.879 580.27C552.879 582.155 551.358 583.208 549.265 583.208ZM555.877 583V573.705H559.504C561.987 573.705 563.586 575.707 563.586 578.45C563.586 579.958 563.079 581.284 562.104 582.103C561.415 582.675 560.518 583 559.348 583H555.877ZM557.762 581.375H559.218C560.986 581.375 561.675 580.296 561.675 578.45C561.675 576.604 560.869 575.317 559.27 575.317H557.762V581.375ZM564.455 583V573.705H571.293V575.291H566.34V577.371H570.682V578.918H566.34V581.427H571.332V583H564.455ZM574.376 583V573.705H578.003C580.486 573.705 582.085 575.707 582.085 578.45C582.085 579.958 581.578 581.284 580.603 582.103C579.914 582.675 579.017 583 577.847 583H574.376ZM576.261 581.375H577.717C579.485 581.375 580.174 580.296 580.174 578.45C580.174 576.604 579.368 575.317 577.769 575.317H576.261V581.375ZM582.954 583V573.705H589.792V575.291H584.839V577.371H589.181V578.918H584.839V581.427H589.831V583H582.954ZM594.448 583.208C591.926 583.208 590.496 582.09 590.431 580.127H592.277C592.407 581.245 593.044 581.687 594.37 581.687C595.332 581.687 596.177 581.349 596.177 580.491C596.177 579.581 595.293 579.399 593.876 579.074C592.212 578.697 590.691 578.255 590.691 576.318C590.691 574.485 592.186 573.536 594.253 573.536C596.346 573.536 597.698 574.563 597.841 576.435H596.034C595.93 575.499 595.202 575.031 594.24 575.031C593.226 575.031 592.563 575.46 592.563 576.123C592.563 576.877 593.213 577.098 594.591 577.397C596.502 577.813 598.062 578.268 598.062 580.27C598.062 582.155 596.541 583.208 594.448 583.208ZM599.045 583V573.705H600.93V583H599.045ZM609.027 583L608.962 581.752H608.936C608.299 582.818 607.428 583.195 606.323 583.195C604.919 583.195 603.827 582.688 603.06 581.843C602.293 580.985 601.851 579.789 601.851 578.385C601.851 576.838 602.397 575.486 603.372 574.589C604.126 573.9 605.114 573.523 606.362 573.523C608.702 573.523 610.041 574.81 610.34 576.63H608.494C608.286 575.733 607.597 575.083 606.401 575.083C604.646 575.083 603.775 576.539 603.775 578.385C603.775 580.283 604.776 581.674 606.375 581.674C607.818 581.674 608.767 580.595 608.767 579.568V579.516H606.531V578.06H610.444V583H609.027ZM611.605 583V573.705H613.516L616.61 578.892C616.909 579.399 617.26 580.192 617.26 580.192H617.286C617.286 580.192 617.234 579.23 617.234 578.58V573.705H619.093V583H617.273L614.101 577.865C613.802 577.371 613.438 576.578 613.438 576.578H613.412C613.412 576.578 613.464 577.553 613.464 578.203V583H611.605ZM620.127 585.158V584.521C620.634 584.261 621.063 583.806 621.063 583H620.114V581.115H622.012V582.896C622.012 584.222 621.128 584.976 620.127 585.158ZM625.064 583V573.705H629.224C630.225 573.705 630.992 573.952 631.473 574.381C631.98 574.836 632.214 575.395 632.214 576.123C632.214 577.072 631.629 577.683 630.758 577.982V578.021C631.785 578.32 632.487 579.178 632.487 580.322C632.487 581.193 632.214 581.791 631.668 582.259C631.135 582.727 630.316 583 629.328 583H625.064ZM626.949 578.84V581.44H629.12C630.03 581.44 630.576 580.933 630.576 580.179C630.576 579.295 629.926 578.84 629.068 578.84H626.949ZM626.949 577.449H628.99C629.809 577.449 630.368 577.059 630.368 576.331C630.368 575.642 629.861 575.239 629.029 575.239H626.949V577.449ZM633.439 583V573.705H637.703C639.497 573.705 640.693 574.745 640.693 576.292C640.693 577.384 640.186 578.216 638.99 578.541V578.58C639.848 578.827 640.29 579.321 640.407 580.452C640.537 581.765 640.485 582.766 640.81 582.909V583H639.003C638.769 582.896 638.743 581.856 638.665 580.855C638.587 579.841 638.015 579.269 636.845 579.269H635.324V583H633.439ZM635.324 575.226V577.813H637.326C638.353 577.813 638.86 577.28 638.86 576.539C638.86 575.785 638.379 575.226 637.378 575.226H635.324ZM641.075 583L644.312 573.705H646.262L649.538 583H647.575L646.951 581.024H643.597L642.986 583H641.075ZM644.871 576.903L644.039 579.581H646.496L645.664 576.903C645.508 576.409 645.287 575.473 645.287 575.473H645.261C645.261 575.473 645.027 576.409 644.871 576.903ZM650.165 583V573.705H652.076L655.17 578.892C655.469 579.399 655.82 580.192 655.82 580.192H655.846C655.846 580.192 655.794 579.23 655.794 578.58V573.705H657.653V583H655.833L652.661 577.865C652.362 577.371 651.998 576.578 651.998 576.578H651.972C651.972 576.578 652.024 577.553 652.024 578.203V583H650.165ZM658.921 583V573.705H662.548C665.031 573.705 666.63 575.707 666.63 578.45C666.63 579.958 666.123 581.284 665.148 582.103C664.459 582.675 663.562 583 662.392 583H658.921ZM660.806 581.375H662.262C664.03 581.375 664.719 580.296 664.719 578.45C664.719 576.604 663.913 575.317 662.314 575.317H660.806V581.375ZM667.512 583V573.705H669.397V583H667.512ZM670.682 583V573.705H672.593L675.687 578.892C675.986 579.399 676.337 580.192 676.337 580.192H676.363C676.363 580.192 676.311 579.23 676.311 578.58V573.705H678.17V583H676.35L673.178 577.865C672.879 577.371 672.515 576.578 672.515 576.578H672.489C672.489 576.578 672.541 577.553 672.541 578.203V583H670.682ZM686.25 583L686.185 581.752H686.159C685.522 582.818 684.651 583.195 683.546 583.195C682.142 583.195 681.05 582.688 680.283 581.843C679.516 580.985 679.074 579.789 679.074 578.385C679.074 576.838 679.62 575.486 680.595 574.589C681.349 573.9 682.337 573.523 683.585 573.523C685.925 573.523 687.264 574.81 687.563 576.63H685.717C685.509 575.733 684.82 575.083 683.624 575.083C681.869 575.083 680.998 576.539 680.998 578.385C680.998 580.283 681.999 581.674 683.598 581.674C685.041 581.674 685.99 580.595 685.99 579.568V579.516H683.754V578.06H687.667V583H686.25ZM690.856 583V573.705H697.694V575.291H692.741V577.371H697.083V578.918H692.741V581.427H697.733V583H690.856ZM702.804 583V573.705H706.964C707.965 573.705 708.732 573.952 709.213 574.381C709.72 574.836 709.954 575.395 709.954 576.123C709.954 577.072 709.369 577.683 708.498 577.982V578.021C709.525 578.32 710.227 579.178 710.227 580.322C710.227 581.193 709.954 581.791 709.408 582.259C708.875 582.727 708.056 583 707.068 583H702.804ZM704.689 578.84V581.44H706.86C707.77 581.44 708.316 580.933 708.316 580.179C708.316 579.295 707.666 578.84 706.808 578.84H704.689ZM704.689 577.449H706.73C707.549 577.449 708.108 577.059 708.108 576.331C708.108 575.642 707.601 575.239 706.769 575.239H704.689V577.449ZM714.768 583.156C712.363 583.156 711.102 582.025 711.102 580.01V573.705H712.987V580.01C712.987 580.972 713.468 581.648 714.729 581.648C715.925 581.648 716.484 580.946 716.484 579.984V573.705H718.369V580.01C718.369 581.999 717.147 583.156 714.768 583.156ZM723.169 583.208C720.647 583.208 719.217 582.09 719.152 580.127H720.998C721.128 581.245 721.765 581.687 723.091 581.687C724.053 581.687 724.898 581.349 724.898 580.491C724.898 579.581 724.014 579.399 722.597 579.074C720.933 578.697 719.412 578.255 719.412 576.318C719.412 574.485 720.907 573.536 722.974 573.536C725.067 573.536 726.419 574.563 726.562 576.435H724.755C724.651 575.499 723.923 575.031 722.961 575.031C721.947 575.031 721.284 575.46 721.284 576.123C721.284 576.877 721.934 577.098 723.312 577.397C725.223 577.813 726.783 578.268 726.783 580.27C726.783 582.155 725.262 583.208 723.169 583.208ZM727.765 583V573.705H729.65V583H727.765ZM730.935 583V573.705H732.846L735.94 578.892C736.239 579.399 736.59 580.192 736.59 580.192H736.616C736.616 580.192 736.564 579.23 736.564 578.58V573.705H738.423V583H736.603L733.431 577.865C733.132 577.371 732.768 576.578 732.768 576.578H732.742C732.742 576.578 732.794 577.553 732.794 578.203V583H730.935ZM739.691 583V573.705H746.529V575.291H741.576V577.371H745.918V578.918H741.576V581.427H746.568V583H739.691ZM751.185 583.208C748.663 583.208 747.233 582.09 747.168 580.127H749.014C749.144 581.245 749.781 581.687 751.107 581.687C752.069 581.687 752.914 581.349 752.914 580.491C752.914 579.581 752.03 579.399 750.613 579.074C748.949 578.697 747.428 578.255 747.428 576.318C747.428 574.485 748.923 573.536 750.99 573.536C753.083 573.536 754.435 574.563 754.578 576.435H752.771C752.667 575.499 751.939 575.031 750.977 575.031C749.963 575.031 749.3 575.46 749.3 576.123C749.3 576.877 749.95 577.098 751.328 577.397C753.239 577.813 754.799 578.268 754.799 580.27C754.799 582.155 753.278 583.208 751.185 583.208ZM759.37 583.208C756.848 583.208 755.418 582.09 755.353 580.127H757.199C757.329 581.245 757.966 581.687 759.292 581.687C760.254 581.687 761.099 581.349 761.099 580.491C761.099 579.581 760.215 579.399 758.798 579.074C757.134 578.697 755.613 578.255 755.613 576.318C755.613 574.485 757.108 573.536 759.175 573.536C761.268 573.536 762.62 574.563 762.763 576.435H760.956C760.852 575.499 760.124 575.031 759.162 575.031C758.148 575.031 757.485 575.46 757.485 576.123C757.485 576.877 758.135 577.098 759.513 577.397C761.424 577.813 762.984 578.268 762.984 580.27C762.984 582.155 761.463 583.208 759.37 583.208ZM763.707 583V581.115H765.605V583H763.707Z" fill="white"/>
<path d="M1100 582.91H1113V569.91H1100V582.91ZM1120.18 582.221C1117.5 582.221 1115.39 580.167 1115.39 577.385C1115.39 574.603 1117.5 572.536 1120.18 572.536C1122.85 572.536 1124.95 574.603 1124.95 577.385C1124.95 580.167 1122.85 582.221 1120.18 582.221ZM1120.18 581.584C1122.46 581.584 1124.19 579.79 1124.19 577.385C1124.19 574.98 1122.46 573.186 1120.18 573.186C1117.87 573.186 1116.15 574.98 1116.15 577.385C1116.15 579.79 1117.87 581.584 1120.18 581.584ZM1120.21 580.271C1118.55 580.271 1117.43 579.036 1117.43 577.346C1117.43 575.656 1118.52 574.395 1120.23 574.395C1121.66 574.395 1122.55 575.266 1122.68 576.449H1121.28C1121.19 575.968 1120.83 575.604 1120.21 575.604C1119.34 575.604 1118.9 576.358 1118.9 577.346C1118.9 578.347 1119.42 579.075 1120.23 579.075C1120.89 579.075 1121.27 578.646 1121.33 578.126H1122.74C1122.7 578.711 1122.44 579.257 1122.05 579.634C1121.61 580.063 1121.02 580.271 1120.21 580.271ZM1125.65 582C1125.72 580.297 1126.79 579.257 1127.8 578.464C1128.92 577.58 1130.14 576.956 1130.14 575.812C1130.14 574.98 1129.7 574.421 1128.9 574.421C1128.01 574.421 1127.47 575.071 1127.45 576.228H1125.78C1125.78 574.2 1126.82 572.913 1128.94 572.913C1130.88 572.913 1131.97 574.226 1131.97 575.76C1131.97 577.437 1130.83 578.23 1129.74 578.958C1129.05 579.4 1128.24 579.972 1127.94 580.544H1132.05V582H1125.65ZM1136.38 582.208C1134.1 582.208 1132.66 580.388 1132.66 577.554C1132.66 574.707 1134.13 572.9 1136.39 572.9C1138.69 572.9 1140.1 574.694 1140.1 577.554C1140.1 580.388 1138.69 582.208 1136.38 582.208ZM1136.39 580.7C1137.72 580.7 1138.25 579.465 1138.25 577.554C1138.25 575.669 1137.7 574.408 1136.39 574.408C1135.06 574.408 1134.51 575.656 1134.51 577.554C1134.51 579.439 1135.06 580.7 1136.39 580.7ZM1140.67 582C1140.73 580.297 1141.8 579.257 1142.81 578.464C1143.93 577.58 1145.15 576.956 1145.15 575.812C1145.15 574.98 1144.71 574.421 1143.92 574.421C1143.02 574.421 1142.49 575.071 1142.46 576.228H1140.8C1140.8 574.2 1141.84 572.913 1143.95 572.913C1145.89 572.913 1146.98 574.226 1146.98 575.76C1146.98 577.437 1145.84 578.23 1144.75 578.958C1144.06 579.4 1143.25 579.972 1142.95 580.544H1147.06V582H1140.67ZM1151.7 582V580.063H1147.59V578.152L1151.64 572.991H1153.43V578.646H1154.78V580.063H1153.43V582H1151.7ZM1149.02 578.607V578.646H1151.7V575.188H1151.67L1149.02 578.607Z" fill="#E8F4FF"/>
<path d="M44.715 582V572.705H47.367L48.68 577.372C49.005 578.542 49.265 579.881 49.265 579.881H49.291C49.291 579.881 49.538 578.542 49.863 577.372L51.176 572.705H53.867V582H52.112V576.67C52.112 575.916 52.19 574.746 52.19 574.746H52.164C52.164 574.746 51.956 575.838 51.761 576.514L50.162 582H48.355L46.795 576.514C46.6 575.838 46.392 574.746 46.392 574.746H46.366C46.366 574.746 46.444 575.916 46.444 576.67V582H44.715ZM54.4709 582L57.7079 572.705H59.6579L62.9339 582H60.9709L60.3469 580.024H56.9929L56.3819 582H54.4709ZM58.2669 575.903L57.4349 578.581H59.8919L59.0599 575.903C58.9039 575.409 58.6829 574.473 58.6829 574.473H58.6569C58.6569 574.473 58.4229 575.409 58.2669 575.903ZM63.5602 582V572.705H67.8242C69.6182 572.705 70.8142 573.745 70.8142 575.292C70.8142 576.384 70.3072 577.216 69.1112 577.541V577.58C69.9692 577.827 70.4112 578.321 70.5282 579.452C70.6582 580.765 70.6062 581.766 70.9312 581.909V582H69.1242C68.8902 581.896 68.8642 580.856 68.7862 579.855C68.7082 578.841 68.1362 578.269 66.9662 578.269H65.4452V582H63.5602ZM65.4452 574.226V576.813H67.4472C68.4742 576.813 68.9812 576.28 68.9812 575.539C68.9812 574.785 68.5002 574.226 67.4992 574.226H65.4452ZM75.941 582.195C73.328 582.195 71.469 580.18 71.469 577.385C71.469 574.629 73.185 572.523 75.928 572.523C78.216 572.523 79.568 573.888 79.763 575.656H77.891C77.722 574.72 77.02 574.109 75.928 574.109C74.212 574.109 73.393 575.539 73.393 577.385C73.393 579.283 74.381 580.648 75.941 580.648C77.046 580.648 77.826 579.985 77.943 579.01H79.789C79.737 579.829 79.386 580.622 78.762 581.207C78.125 581.805 77.228 582.195 75.941 582.195ZM79.9267 582L83.1637 572.705H85.1137L88.3897 582H86.4267L85.8027 580.024H82.4487L81.8377 582H79.9267ZM83.7227 575.903L82.8907 578.581H85.3477L84.5157 575.903C84.3597 575.409 84.1387 574.473 84.1387 574.473H84.1127C84.1127 574.473 83.8787 575.409 83.7227 575.903ZM89.0161 582V572.705H92.6431C95.1261 572.705 96.7251 574.707 96.7251 577.45C96.7251 578.958 96.2181 580.284 95.2431 581.103C94.5541 581.675 93.6571 582 92.4871 582H89.0161ZM90.9011 580.375H92.3571C94.1251 580.375 94.8141 579.296 94.8141 577.45C94.8141 575.604 94.0081 574.317 92.4091 574.317H90.9011V580.375ZM101.676 582.208C98.9334 582.208 97.1914 580.154 97.1914 577.372C97.1914 574.59 98.9334 572.523 101.676 572.523C104.419 572.523 106.148 574.59 106.148 577.372C106.148 580.154 104.419 582.208 101.676 582.208ZM101.689 580.661C103.392 580.661 104.224 579.218 104.224 577.372C104.224 575.513 103.392 574.07 101.689 574.07C99.9864 574.07 99.1154 575.513 99.1154 577.372C99.1154 579.218 99.9864 580.661 101.689 580.661ZM110.624 582.208C108.102 582.208 106.672 581.09 106.607 579.127H108.453C108.583 580.245 109.22 580.687 110.546 580.687C111.508 580.687 112.353 580.349 112.353 579.491C112.353 578.581 111.469 578.399 110.052 578.074C108.388 577.697 106.867 577.255 106.867 575.318C106.867 573.485 108.362 572.536 110.429 572.536C112.522 572.536 113.874 573.563 114.017 575.435H112.21C112.106 574.499 111.378 574.031 110.416 574.031C109.402 574.031 108.739 574.46 108.739 575.123C108.739 575.877 109.389 576.098 110.767 576.397C112.678 576.813 114.238 577.268 114.238 579.27C114.238 581.155 112.717 582.208 110.624 582.208Z" fill="#E8F4FF"/>
<path d="M48.108 57.208C45.833 57.208 44.39 55.388 44.39 52.554C44.39 49.707 45.859 47.9 48.121 47.9C50.422 47.9 51.826 49.694 51.826 52.554C51.826 55.388 50.422 57.208 48.108 57.208ZM48.121 55.7C49.447 55.7 49.98 54.465 49.98 52.554C49.98 50.669 49.434 49.408 48.121 49.408C46.795 49.408 46.236 50.656 46.236 52.554C46.236 54.439 46.795 55.7 48.121 55.7ZM56.4779 57V55.063H52.3699V53.152L56.4129 47.991H58.2069V53.646H59.5589V55.063H58.2069V57H56.4779ZM53.7999 53.607V53.646H56.4779V50.188H56.4519L53.7999 53.607ZM60.1143 59.158V58.521C60.6213 58.261 61.0503 57.806 61.0503 57H60.1013V55.115H61.9993V56.896C61.9993 58.222 61.1153 58.976 60.1143 59.158ZM68.444 57.208C66.169 57.208 64.726 55.388 64.726 52.554C64.726 49.707 66.195 47.9 68.457 47.9C70.758 47.9 72.162 49.694 72.162 52.554C72.162 55.388 70.758 57.208 68.444 57.208ZM68.457 55.7C69.783 55.7 70.316 54.465 70.316 52.554C70.316 50.669 69.77 49.408 68.457 49.408C67.131 49.408 66.572 50.656 66.572 52.554C66.572 54.439 67.131 55.7 68.457 55.7ZM76.1508 57.195C74.1748 57.195 72.7318 56.155 72.5628 54.426H74.3048C74.4608 55.297 75.1888 55.713 76.1118 55.713C77.1258 55.713 77.7628 54.985 77.7628 54.036C77.7628 52.983 77.0478 52.398 76.1118 52.398C75.4358 52.398 74.9158 52.658 74.6558 52.957H72.9528L73.8108 48.095H79.0628V49.564H75.0458L74.7078 51.488H74.7338C75.1238 51.15 75.7608 50.929 76.5798 50.929C78.1528 50.929 79.5958 52.112 79.5958 54.036C79.5958 55.895 78.1008 57.195 76.1508 57.195ZM82.496 57V47.705H89.334V49.291H84.381V51.371H88.723V52.918H84.381V55.427H89.373V57H82.496ZM95.8095 57.208C93.5345 57.208 92.0915 55.388 92.0915 52.554C92.0915 49.707 93.5605 47.9 95.8225 47.9C98.1235 47.9 99.5275 49.694 99.5275 52.554C99.5275 55.388 98.1235 57.208 95.8095 57.208ZM95.8225 55.7C97.1485 55.7 97.6815 54.465 97.6815 52.554C97.6815 50.669 97.1355 49.408 95.8225 49.408C94.4965 49.408 93.9375 50.656 93.9375 52.554C93.9375 54.439 94.4965 55.7 95.8225 55.7ZM103.854 57.195C101.306 57.195 100.188 55.102 100.162 52.684C100.149 51.111 100.461 49.837 101.254 48.94C101.826 48.29 102.606 47.913 103.815 47.913C105.596 47.913 106.662 48.888 106.883 50.214H105.18C105.05 49.668 104.66 49.265 103.88 49.265C102.58 49.265 101.956 50.24 101.956 51.813H101.982C102.45 51.267 103.035 50.89 104.075 50.89C105.726 50.89 107.169 52.177 107.169 54.075C107.169 55.908 105.713 57.195 103.854 57.195ZM103.789 55.804C104.751 55.804 105.479 55.063 105.479 54.101C105.479 53.087 104.764 52.32 103.802 52.32C102.71 52.32 102.073 53.061 102.073 54.088C102.073 55.089 102.788 55.804 103.789 55.804ZM107.491 57L111.131 47.705H112.535L108.895 57H107.491ZM116.657 57.208C114.382 57.208 112.939 55.388 112.939 52.554C112.939 49.707 114.408 47.9 116.67 47.9C118.971 47.9 120.375 49.694 120.375 52.554C120.375 55.388 118.971 57.208 116.657 57.208ZM116.67 55.7C117.996 55.7 118.529 54.465 118.529 52.554C118.529 50.669 117.983 49.408 116.67 49.408C115.344 49.408 114.785 50.656 114.785 52.554C114.785 54.439 115.344 55.7 116.67 55.7ZM124.312 57.195C122.011 57.195 120.828 55.921 120.802 53.971H122.492C122.557 55.037 123.025 55.778 124.247 55.778C125.235 55.778 125.82 55.245 125.82 54.335C125.82 53.477 125.274 52.957 124.182 52.957H123.636V51.618H124.143C124.988 51.618 125.586 51.189 125.586 50.435C125.586 49.733 125.105 49.265 124.325 49.265C123.311 49.265 122.817 49.928 122.778 50.851H121.088C121.153 49.096 122.258 47.913 124.325 47.913C126.184 47.913 127.38 48.836 127.38 50.318C127.38 51.319 126.743 51.904 125.859 52.19V52.216C126.99 52.489 127.666 53.217 127.666 54.452C127.666 56.298 126.145 57.195 124.312 57.195Z" fill="#E8F4FF"/>
<path d="M1107.04 57L1110.28 47.705H1112.23L1115.5 57H1113.54L1112.92 55.024H1109.56L1108.95 57H1107.04ZM1110.84 50.903L1110 53.581H1112.46L1111.63 50.903C1111.47 50.409 1111.25 49.473 1111.25 49.473H1111.23C1111.23 49.473 1110.99 50.409 1110.84 50.903ZM1120.21 57.208C1117.47 57.208 1115.73 55.154 1115.73 52.372C1115.73 49.59 1117.47 47.523 1120.21 47.523C1122.95 47.523 1124.68 49.59 1124.68 52.372C1124.68 55.154 1122.95 57.208 1120.21 57.208ZM1120.22 55.661C1121.93 55.661 1122.76 54.218 1122.76 52.372C1122.76 50.513 1121.93 49.07 1120.22 49.07C1118.52 49.07 1117.65 50.513 1117.65 52.372C1117.65 54.218 1118.52 55.661 1120.22 55.661ZM1130.03 57L1126.9 47.705H1128.87L1130.51 53.087C1130.69 53.698 1130.91 54.569 1130.91 54.569H1130.94C1130.94 54.569 1131.16 53.685 1131.34 53.087L1132.97 47.705H1134.88L1131.74 57H1130.03ZM1135.48 57V47.705H1137.36V57H1135.48ZM1141.09 57L1137.96 47.705H1139.93L1141.57 53.087C1141.75 53.698 1141.98 54.569 1141.98 54.569H1142C1142 54.569 1142.22 53.685 1142.4 53.087L1144.03 47.705H1145.94L1142.81 57H1141.09ZM1150.61 57.208C1147.87 57.208 1146.13 55.154 1146.13 52.372C1146.13 49.59 1147.87 47.523 1150.61 47.523C1153.35 47.523 1155.08 49.59 1155.08 52.372C1155.08 55.154 1153.35 57.208 1150.61 57.208ZM1150.62 55.661C1152.33 55.661 1153.16 54.218 1153.16 52.372C1153.16 50.513 1152.33 49.07 1150.62 49.07C1148.92 49.07 1148.05 50.513 1148.05 52.372C1148.05 54.218 1148.92 55.661 1150.62 55.661Z" fill="#E8F4FF"/>
</svg>
